<svg xmlns="http://www.w3.org/2000/svg" width="22.123" height="22" viewBox="0 0 22.123 22"><defs><style>.a{fill:#012492;}</style></defs><g transform="translate(-2 -2)"><g transform="translate(-89 -11)"><g transform="translate(91 13)"><path class="a" d="M4.148,13.75H0V0H13.827V4.125H4.148v5.5H8.3V13.75Z"/><path class="a" d="M5.531,22H0V15.125H4.148v2.75H5.531A12.41,12.41,0,0,0,17.975,5.5V4.125H15.21V0h6.914V5.5A16.546,16.546,0,0,1,5.531,22Z"/><path class="a" d="M9.679,13.75c3.256,0,6.222-4.259,6.222-8.25H11.753a5.623,5.623,0,0,1-1.018,3.08,3.749,3.749,0,0,1-.843.9,1.183,1.183,0,0,1-.249.142c-.015.006,0,0,.035,0Z"/></g></g></g></svg>